<svg width="27" height="26" viewBox="0 0 27 26" fill="none" xmlns="http://www.w3.org/2000/svg">
<path d="M23.5836 8.66666H4.08365M18.167 2.16666V5.41666M9.50032 2.16666V5.41666M9.28365 23.8333H18.3836C20.2038 23.8333 21.1139 23.8333 21.8091 23.4791C22.4206 23.1675 22.9178 22.6703 23.2294 22.0588C23.5836 21.3636 23.5836 20.4535 23.5836 18.6333V9.53332C23.5836 7.71315 23.5836 6.80307 23.2294 6.10785C22.9178 5.49633 22.4206 4.99914 21.8091 4.68755C21.1139 4.33332 20.2038 4.33332 18.3837 4.33332H9.28365C7.46348 4.33332 6.55339 4.33332 5.85818 4.68755C5.24665 4.99914 4.74947 5.49633 4.43788 6.10785C4.08365 6.80307 4.08365 7.71315 4.08365 9.53332V18.6333C4.08365 20.4535 4.08365 21.3636 4.43788 22.0588C4.74947 22.6703 5.24665 23.1675 5.85818 23.4791C6.55339 23.8333 7.46348 23.8333 9.28365 23.8333ZM13.8307 13.3581C12.9643 12.3734 11.5195 12.1085 10.434 13.0102C9.34849 13.912 9.19567 15.4196 10.0481 16.4861C10.6671 17.2604 12.3812 18.7846 13.2739 19.5617C13.4675 19.7301 13.5642 19.8143 13.6776 19.8477C13.7758 19.8767 13.8855 19.8767 13.9837 19.8477C14.0971 19.8143 14.1939 19.7301 14.3874 19.5617C15.2802 18.7846 16.9943 17.2604 17.6132 16.4861C18.4657 15.4196 18.3315 13.9025 17.2273 13.0102C16.1232 12.118 14.6971 12.3734 13.8307 13.3581Z" stroke="#4B4B4B" stroke-width="1.5" stroke-linecap="round" stroke-linejoin="round"/>
</svg>
