<svg width="40" height="40" viewBox="0 0 40 40" fill="none" xmlns="http://www.w3.org/2000/svg">
<path d="M15 8.3335C15 5.57207 17.2386 3.3335 20 3.3335C22.7614 3.3335 25 5.57207 25 8.3335V20.0002C25 22.7616 22.7614 25.0002 20 25.0002C17.2386 25.0002 15 22.7616 15 20.0002V8.3335Z" fill="#060606"/>
<path d="M31.6667 16.6668V20.0002C31.6667 26.4435 26.4433 31.6668 20 31.6668M8.33334 16.6668V20.0002C8.33334 26.4435 13.5567 31.6668 20 31.6668M20 31.6668V36.6668M13.3333 36.6668H26.6667M20 25.0002C17.2386 25.0002 15 22.7616 15 20.0002V8.3335C15 5.57207 17.2386 3.3335 20 3.3335C22.7614 3.3335 25 5.57207 25 8.3335V20.0002C25 22.7616 22.7614 25.0002 20 25.0002Z" stroke="#060606" stroke-width="3" stroke-linecap="round" stroke-linejoin="round"/>
</svg>
