<svg width="31" height="30" viewBox="0 0 31 30" fill="none" xmlns="http://www.w3.org/2000/svg">
<path d="M15.5 24.9102C10.002 24.9102 5.53906 20.4473 5.53906 14.9492C5.53906 9.45117 10.002 4.98828 15.5 4.98828C20.998 4.98828 25.4609 9.45117 25.4609 14.9492C25.4609 20.4473 20.998 24.9102 15.5 24.9102ZM15.5 18.2695C18.4395 18.2695 20.6953 19.3242 21.6816 20.4863C23 19.0215 23.8008 17.0781 23.8008 14.9492C23.8008 10.3594 20.0898 6.64844 15.5 6.64844C10.9102 6.64844 7.19922 10.3594 7.19922 14.9492C7.19922 17.0781 8 19.0215 9.31836 20.4863C10.3047 19.3242 12.5703 18.2695 15.5 18.2695ZM15.5 16.6094C13.625 16.5898 12.1602 15.0273 12.1504 12.9277C12.1406 10.9551 13.625 9.32422 15.5 9.32422C17.375 9.32422 18.8496 10.9551 18.8496 12.9277C18.8496 15.0273 17.3848 16.6289 15.5 16.6094Z" fill="#4B4B4B"/>
</svg>
