<svg width="16" height="16" viewBox="0 0 16 16" fill="none" xmlns="http://www.w3.org/2000/svg">
<path d="M11.9723 5.33366V2.2781M4.02781 13.2781V10.2225M10.4445 3.80588H13.5M2.50003 11.7503H5.55558M4.63892 1.66699L4.15952 2.62577C3.99728 2.95026 3.91616 3.1125 3.80779 3.2531C3.71162 3.37785 3.59978 3.4897 3.47502 3.58586C3.33443 3.69424 3.17219 3.77536 2.8477 3.9376L1.88892 4.41699L2.8477 4.89638C3.17219 5.05863 3.33443 5.13975 3.47502 5.24812C3.59978 5.34429 3.71162 5.45613 3.80779 5.58089C3.91616 5.72148 3.99728 5.88372 4.15952 6.20821L4.63892 7.16699L5.11831 6.20821C5.28055 5.88372 5.36167 5.72148 5.47005 5.58089C5.56621 5.45613 5.67805 5.34429 5.80281 5.24812C5.9434 5.13975 6.10565 5.05863 6.43013 4.89638L7.38892 4.41699L6.43013 3.9376C6.10565 3.77536 5.9434 3.69424 5.80281 3.58586C5.67805 3.4897 5.56621 3.37785 5.47005 3.2531C5.36167 3.11251 5.28055 2.95026 5.11831 2.62578L4.63892 1.66699ZM11.0556 7.7781L10.4743 8.94059C10.3121 9.26508 10.231 9.42732 10.1226 9.56791C10.0264 9.69267 9.91459 9.80451 9.78984 9.90068C9.64924 10.0091 9.487 10.0902 9.16251 10.2524L8.00003 10.8337L9.16251 11.4149C9.487 11.5771 9.64924 11.6583 9.78984 11.7666C9.91459 11.8628 10.0264 11.9746 10.1226 12.0994C10.231 12.24 10.3121 12.4022 10.4743 12.7267L11.0556 13.8892L11.6368 12.7267C11.7991 12.4022 11.8802 12.24 11.9886 12.0994C12.0847 11.9746 12.1966 11.8628 12.3213 11.7666C12.4619 11.6583 12.6242 11.5771 12.9487 11.4149L14.1111 10.8337L12.9487 10.2524C12.6242 10.0902 12.4619 10.0091 12.3213 9.90068C12.1966 9.80451 12.0847 9.69267 11.9886 9.56791C11.8802 9.42732 11.7991 9.26508 11.6368 8.94059L11.0556 7.7781Z" stroke="white" stroke-width="0.611111" stroke-linecap="round" stroke-linejoin="round"/>
</svg>
